<?xml version="1.0" encoding="UTF-8" standalone="no"?>
<!-- Created with Inkscape (http://www.inkscape.org/) -->

<svg
   xmlns:dc="http://purl.org/dc/elements/1.1/"
   xmlns:cc="http://creativecommons.org/ns#"
   xmlns:rdf="http://www.w3.org/1999/02/22-rdf-syntax-ns#"
   xmlns:svg="http://www.w3.org/2000/svg"
   xmlns="http://www.w3.org/2000/svg"
   xmlns:sodipodi="http://sodipodi.sourceforge.net/DTD/sodipodi-0.dtd"
   xmlns:inkscape="http://www.inkscape.org/namespaces/inkscape"
   width="744.09448819"
   height="1052.3622047"
   id="svg4466"
   version="1.1"
   inkscape:version="0.48.4 r9939"
   inkscape:export-filename="C:\Users\DZIN\Desktop\zbun.png"
   inkscape:export-xdpi="129.13988"
   inkscape:export-ydpi="129.13988"
   sodipodi:docname="bush.svg">
  <defs
     id="defs4468">
    <filter
       inkscape:collect="always"
       id="filter3823"
       x="-0.079736842"
       width="1.1594737"
       y="-0.12059702"
       height="1.241194">
      <feGaussianBlur
         inkscape:collect="always"
         stdDeviation="8.7068966"
         id="feGaussianBlur3825" />
    </filter>
  </defs>
  <sodipodi:namedview
     id="base"
     pagecolor="#ffffff"
     bordercolor="#666666"
     borderopacity="1.0"
     inkscape:pageopacity="0.0"
     inkscape:pageshadow="2"
     inkscape:zoom="1.16"
     inkscape:cx="397.6266"
     inkscape:cy="864.82759"
     inkscape:document-units="px"
     inkscape:current-layer="layer1"
     showgrid="false"
     inkscape:window-width="1280"
     inkscape:window-height="898"
     inkscape:window-x="-8"
     inkscape:window-y="-8"
     inkscape:window-maximized="1" />
  <metadata
     id="metadata4471">
    <rdf:RDF>
      <cc:Work
         rdf:about="">
        <dc:format>image/svg+xml</dc:format>
        <dc:type
           rdf:resource="http://purl.org/dc/dcmitype/StillImage" />
        <dc:title></dc:title>
      </cc:Work>
    </rdf:RDF>
  </metadata>
  <g
     id="g5060"
     inkscape:groupmode="layer"
     inkscape:label="Bush Back">
    <g
       style="fill:#4f7112;fill-opacity:1;stroke:#263c00;stroke-width:1.8108108;stroke-miterlimit:4;stroke-opacity:1;stroke-dasharray:none"
       id="g5062"
       transform="matrix(1.1044776,0,0,1.1044776,-29.414827,-170.04299)">
      <path
         sodipodi:type="arc"
         style="fill:#4f7112;fill-opacity:1;fill-rule:nonzero;stroke:#263c00;stroke-width:1.8108108;stroke-miterlimit:4;stroke-opacity:1;stroke-dasharray:none"
         id="path5064"
         sodipodi:cx="173.70689"
         sodipodi:cy="390.72424"
         sodipodi:rx="54.741379"
         sodipodi:ry="54.741379"
         d="m 228.44827,390.72424 c 0,30.23283 -24.50855,54.74138 -54.74138,54.74138 -30.23282,0 -54.74137,-24.50855 -54.74137,-54.74138 0,-30.23283 24.50855,-54.74138 54.74137,-54.74138 30.23283,0 54.74138,24.50855 54.74138,54.74138 z"
         transform="translate(187.93103,-67.241379)" />
      <path
         transform="translate(112.06896,-3.4482756)"
         d="m 228.44827,390.72424 c 0,30.23283 -24.50855,54.74138 -54.74138,54.74138 -30.23282,0 -54.74137,-24.50855 -54.74137,-54.74138 0,-30.23283 24.50855,-54.74138 54.74137,-54.74138 30.23283,0 54.74138,24.50855 54.74138,54.74138 z"
         sodipodi:ry="54.741379"
         sodipodi:rx="54.741379"
         sodipodi:cy="390.72424"
         sodipodi:cx="173.70689"
         id="path5066"
         style="fill:#4f7112;fill-opacity:1;fill-rule:nonzero;stroke:#263c00;stroke-width:1.8108108;stroke-miterlimit:4;stroke-opacity:1;stroke-dasharray:none"
         sodipodi:type="arc" />
      <path
         sodipodi:type="arc"
         style="fill:#4f7112;fill-opacity:1;fill-rule:nonzero;stroke:#263c00;stroke-width:1.8108108;stroke-miterlimit:4;stroke-opacity:1;stroke-dasharray:none"
         id="path5068"
         sodipodi:cx="173.70689"
         sodipodi:cy="390.72424"
         sodipodi:rx="54.741379"
         sodipodi:ry="54.741379"
         d="m 228.44827,390.72424 c 0,30.23283 -24.50855,54.74138 -54.74138,54.74138 -30.23282,0 -54.74137,-24.50855 -54.74137,-54.74138 0,-30.23283 24.50855,-54.74138 54.74137,-54.74138 30.23283,0 54.74138,24.50855 54.74138,54.74138 z"
         transform="translate(264.65517,-6.0344825)" />
      <path
         transform="translate(188.7931,-3.4482756)"
         d="m 228.44827,390.72424 c 0,30.23283 -24.50855,54.74138 -54.74138,54.74138 -30.23282,0 -54.74137,-24.50855 -54.74137,-54.74138 0,-30.23283 24.50855,-54.74138 54.74137,-54.74138 30.23283,0 54.74138,24.50855 54.74138,54.74138 z"
         sodipodi:ry="54.741379"
         sodipodi:rx="54.741379"
         sodipodi:cy="390.72424"
         sodipodi:cx="173.70689"
         id="path5070"
         style="fill:#4f7112;fill-opacity:1;fill-rule:nonzero;stroke:#263c00;stroke-width:1.8108108;stroke-miterlimit:4;stroke-opacity:1;stroke-dasharray:none"
         sodipodi:type="arc" />
      <path
         sodipodi:type="arc"
         style="fill:#4f7112;fill-opacity:1;fill-rule:nonzero;stroke:#263c00;stroke-width:1.8108108;stroke-miterlimit:4;stroke-opacity:1;stroke-dasharray:none"
         id="path5072"
         sodipodi:cx="173.70689"
         sodipodi:cy="390.72424"
         sodipodi:rx="54.741379"
         sodipodi:ry="54.741379"
         d="m 228.44827,390.72424 c 0,30.23283 -24.50855,54.74138 -54.74138,54.74138 -30.23282,0 -54.74137,-24.50855 -54.74137,-54.74138 0,-30.23283 24.50855,-54.74138 54.74137,-54.74138 30.23283,0 54.74138,24.50855 54.74138,54.74138 z"
         transform="translate(131.89655,-51.724137)" />
      <path
         transform="translate(241.37931,-43.965516)"
         d="m 228.44827,390.72424 c 0,30.23283 -24.50855,54.74138 -54.74138,54.74138 -30.23282,0 -54.74137,-24.50855 -54.74137,-54.74138 0,-30.23283 24.50855,-54.74138 54.74137,-54.74138 30.23283,0 54.74138,24.50855 54.74138,54.74138 z"
         sodipodi:ry="54.741379"
         sodipodi:rx="54.741379"
         sodipodi:cy="390.72424"
         sodipodi:cx="173.70689"
         id="path5074"
         style="fill:#4f7112;fill-opacity:1;fill-rule:nonzero;stroke:#263c00;stroke-width:1.8108108;stroke-miterlimit:4;stroke-opacity:1;stroke-dasharray:none"
         sodipodi:type="arc" />
    </g>
  </g>
  <g
     inkscape:groupmode="layer"
     id="layer2"
     inkscape:label="Layer" />
  <g
     inkscape:label="Bush Main"
     inkscape:groupmode="layer"
     id="layer1">
    <g
       id="g4488"
       style="fill:#5e8e0a;fill-opacity:1;stroke:#273c04;stroke-width:5;stroke-miterlimit:4;stroke-opacity:1;stroke-dasharray:none"
       transform="translate(6.8965532,-133.62069)">
      <path
         transform="translate(187.93103,-67.241379)"
         d="m 228.44827,390.72424 c 0,30.23283 -24.50855,54.74138 -54.74138,54.74138 -30.23282,0 -54.74137,-24.50855 -54.74137,-54.74138 0,-30.23283 24.50855,-54.74138 54.74137,-54.74138 30.23283,0 54.74138,24.50855 54.74138,54.74138 z"
         sodipodi:ry="54.741379"
         sodipodi:rx="54.741379"
         sodipodi:cy="390.72424"
         sodipodi:cx="173.70689"
         id="path4474"
         style="fill:#5e8e0a;fill-opacity:1;fill-rule:nonzero;stroke:#273c04;stroke-width:5;stroke-miterlimit:4;stroke-opacity:1;stroke-dasharray:none"
         sodipodi:type="arc" />
      <path
         sodipodi:type="arc"
         style="fill:#5e8e0a;fill-opacity:1;fill-rule:nonzero;stroke:#273c04;stroke-width:5;stroke-miterlimit:4;stroke-opacity:1;stroke-dasharray:none"
         id="path4476"
         sodipodi:cx="173.70689"
         sodipodi:cy="390.72424"
         sodipodi:rx="54.741379"
         sodipodi:ry="54.741379"
         d="m 228.44827,390.72424 c 0,30.23283 -24.50855,54.74138 -54.74138,54.74138 -30.23282,0 -54.74137,-24.50855 -54.74137,-54.74138 0,-30.23283 24.50855,-54.74138 54.74137,-54.74138 30.23283,0 54.74138,24.50855 54.74138,54.74138 z"
         transform="translate(112.06896,-3.4482756)" />
      <path
         transform="translate(264.65517,-6.0344825)"
         d="m 228.44827,390.72424 c 0,30.23283 -24.50855,54.74138 -54.74138,54.74138 -30.23282,0 -54.74137,-24.50855 -54.74137,-54.74138 0,-30.23283 24.50855,-54.74138 54.74137,-54.74138 30.23283,0 54.74138,24.50855 54.74138,54.74138 z"
         sodipodi:ry="54.741379"
         sodipodi:rx="54.741379"
         sodipodi:cy="390.72424"
         sodipodi:cx="173.70689"
         id="path4478"
         style="fill:#5e8e0a;fill-opacity:1;fill-rule:nonzero;stroke:#273c04;stroke-width:5;stroke-miterlimit:4;stroke-opacity:1;stroke-dasharray:none"
         sodipodi:type="arc" />
      <path
         sodipodi:type="arc"
         style="fill:#5e8e0a;fill-opacity:1;fill-rule:nonzero;stroke:#273c04;stroke-width:5;stroke-miterlimit:4;stroke-opacity:1;stroke-dasharray:none"
         id="path4480"
         sodipodi:cx="173.70689"
         sodipodi:cy="390.72424"
         sodipodi:rx="54.741379"
         sodipodi:ry="54.741379"
         d="m 228.44827,390.72424 c 0,30.23283 -24.50855,54.74138 -54.74138,54.74138 -30.23282,0 -54.74137,-24.50855 -54.74137,-54.74138 0,-30.23283 24.50855,-54.74138 54.74137,-54.74138 30.23283,0 54.74138,24.50855 54.74138,54.74138 z"
         transform="translate(188.7931,-3.4482756)" />
      <path
         transform="translate(131.89655,-51.724137)"
         d="m 228.44827,390.72424 c 0,30.23283 -24.50855,54.74138 -54.74138,54.74138 -30.23282,0 -54.74137,-24.50855 -54.74137,-54.74138 0,-30.23283 24.50855,-54.74138 54.74137,-54.74138 30.23283,0 54.74138,24.50855 54.74138,54.74138 z"
         sodipodi:ry="54.741379"
         sodipodi:rx="54.741379"
         sodipodi:cy="390.72424"
         sodipodi:cx="173.70689"
         id="path4482"
         style="fill:#5e8e0a;fill-opacity:1;fill-rule:nonzero;stroke:#273c04;stroke-width:5;stroke-miterlimit:4;stroke-opacity:1;stroke-dasharray:none"
         sodipodi:type="arc" />
      <path
         sodipodi:type="arc"
         style="fill:#5e8e0a;fill-opacity:1;fill-rule:nonzero;stroke:#273c04;stroke-width:5;stroke-miterlimit:4;stroke-opacity:1;stroke-dasharray:none"
         id="path4486"
         sodipodi:cx="173.70689"
         sodipodi:cy="390.72424"
         sodipodi:rx="54.741379"
         sodipodi:ry="54.741379"
         d="m 228.44827,390.72424 c 0,30.23283 -24.50855,54.74138 -54.74138,54.74138 -30.23282,0 -54.74137,-24.50855 -54.74137,-54.74138 0,-30.23283 24.50855,-54.74138 54.74137,-54.74138 30.23283,0 54.74138,24.50855 54.74138,54.74138 z"
         transform="translate(241.37931,-43.965516)" />
    </g>
    <g
       transform="matrix(0.86184211,0,0,0.86184211,55.1951,-85.285035)"
       style="fill:#9cd649;fill-opacity:1;filter:url(#filter3823)"
       id="g3029">
      <path
         sodipodi:type="arc"
         style="fill:#9cd649;fill-opacity:1;fill-rule:nonzero;stroke:none"
         id="path3031"
         sodipodi:cx="173.70689"
         sodipodi:cy="390.72424"
         sodipodi:rx="54.741379"
         sodipodi:ry="54.741379"
         d="m 228.44827,390.72424 c 0,30.23283 -24.50855,54.74138 -54.74138,54.74138 -30.23282,0 -54.74137,-24.50855 -54.74137,-54.74138 0,-30.23283 24.50855,-54.74138 54.74137,-54.74138 30.23283,0 54.74138,24.50855 54.74138,54.74138 z"
         transform="translate(187.93103,-67.241379)" />
      <path
         transform="translate(112.06896,-3.4482756)"
         d="m 228.44827,390.72424 c 0,30.23283 -24.50855,54.74138 -54.74138,54.74138 -30.23282,0 -54.74137,-24.50855 -54.74137,-54.74138 0,-30.23283 24.50855,-54.74138 54.74137,-54.74138 30.23283,0 54.74138,24.50855 54.74138,54.74138 z"
         sodipodi:ry="54.741379"
         sodipodi:rx="54.741379"
         sodipodi:cy="390.72424"
         sodipodi:cx="173.70689"
         id="path3033"
         style="fill:#9cd649;fill-opacity:1;fill-rule:nonzero;stroke:none"
         sodipodi:type="arc" />
      <path
         sodipodi:type="arc"
         style="fill:#9cd649;fill-opacity:1;fill-rule:nonzero;stroke:none"
         id="path3035"
         sodipodi:cx="173.70689"
         sodipodi:cy="390.72424"
         sodipodi:rx="54.741379"
         sodipodi:ry="54.741379"
         d="m 228.44827,390.72424 c 0,30.23283 -24.50855,54.74138 -54.74138,54.74138 -30.23282,0 -54.74137,-24.50855 -54.74137,-54.74138 0,-30.23283 24.50855,-54.74138 54.74137,-54.74138 30.23283,0 54.74138,24.50855 54.74138,54.74138 z"
         transform="translate(264.65517,-6.0344825)" />
      <path
         transform="translate(188.7931,-3.4482756)"
         d="m 228.44827,390.72424 c 0,30.23283 -24.50855,54.74138 -54.74138,54.74138 -30.23282,0 -54.74137,-24.50855 -54.74137,-54.74138 0,-30.23283 24.50855,-54.74138 54.74137,-54.74138 30.23283,0 54.74138,24.50855 54.74138,54.74138 z"
         sodipodi:ry="54.741379"
         sodipodi:rx="54.741379"
         sodipodi:cy="390.72424"
         sodipodi:cx="173.70689"
         id="path3037"
         style="fill:#9cd649;fill-opacity:1;fill-rule:nonzero;stroke:none"
         sodipodi:type="arc" />
      <path
         sodipodi:type="arc"
         style="fill:#9cd649;fill-opacity:1;fill-rule:nonzero;stroke:none"
         id="path3039"
         sodipodi:cx="173.70689"
         sodipodi:cy="390.72424"
         sodipodi:rx="54.741379"
         sodipodi:ry="54.741379"
         d="m 228.44827,390.72424 c 0,30.23283 -24.50855,54.74138 -54.74138,54.74138 -30.23282,0 -54.74137,-24.50855 -54.74137,-54.74138 0,-30.23283 24.50855,-54.74138 54.74137,-54.74138 30.23283,0 54.74138,24.50855 54.74138,54.74138 z"
         transform="translate(131.89655,-51.724137)" />
      <path
         transform="translate(241.37931,-43.965516)"
         d="m 228.44827,390.72424 c 0,30.23283 -24.50855,54.74138 -54.74138,54.74138 -30.23282,0 -54.74137,-24.50855 -54.74137,-54.74138 0,-30.23283 24.50855,-54.74138 54.74137,-54.74138 30.23283,0 54.74138,24.50855 54.74138,54.74138 z"
         sodipodi:ry="54.741379"
         sodipodi:rx="54.741379"
         sodipodi:cy="390.72424"
         sodipodi:cx="173.70689"
         id="path3041"
         style="fill:#9cd649;fill-opacity:1;fill-rule:nonzero;stroke:none"
         sodipodi:type="arc" />
    </g>
  </g>
</svg>
